#N canvas 0 23 720 851 10;
#X obj 181 314 comport;
#X msg 120 230 ports;
#X obj 233 314 print;
#X msg 120 270 open \$1;
#X floatatom 120 250 5 0 0 0 - - -, f 5;
#X obj 181 292 mrpeach/slipenc 65536;
#X obj 181 336 mrpeach/slipdec 65536;
#X msg 120 292 close;
#X msg 89 351 baud 115200;
#X obj 101 250 bng 15 250 50 0 empty empty empty 17 7 0 10 -262144
-1 -1;
#X obj 89 331 loadbang;
#X obj 525 125 timer;
#X obj 525 105 t b b;
#X floatatom 525 145 5 0 0 0 - - -, f 5;
#X obj 491 86 vsl 15 128 0 127 0 0 empty empty empty 0 -9 0 10 -262144
-1 -1 2000 0;
#X obj 387 527 print;
#X obj 181 256 mrpeach/packOSC;
#X obj 146 607 * 0.5;
#X obj 146 626 + 0.5;
#X obj 146 647 vsl 15 128 0 1 0 0 empty empty empty 0 -9 0 10 -262144
-1 -1 6290 0;
#X obj 182 607 * 0.5;
#X obj 182 626 + 0.5;
#X obj 182 647 vsl 15 128 0 1 0 0 empty empty empty 0 -9 0 10 -262144
-1 -1 6367 0;
#X obj 218 607 * 0.5;
#X obj 218 626 + 0.5;
#X obj 218 647 vsl 15 128 0 1 0 0 empty empty empty 0 -9 0 10 -262144
-1 -1 7787 0;
#X obj 270 607 * 0.5;
#X obj 270 626 + 0.5;
#X obj 270 647 vsl 15 128 0 1 0 0 empty empty empty 0 -9 0 10 -262144
-1 -1 6333 0;
#X obj 306 607 * 0.5;
#X obj 306 626 + 0.5;
#X obj 306 647 vsl 15 128 0 1 0 0 empty empty empty 0 -9 0 10 -262144
-1 -1 6352 0;
#X obj 342 607 * 0.5;
#X obj 342 626 + 0.5;
#X obj 342 647 vsl 15 128 0 1 0 0 empty empty empty 0 -9 0 10 -262144
-1 -1 6345 0;
#X obj 394 607 * 0.5;
#X obj 394 626 + 0.5;
#X obj 394 647 vsl 15 128 0 1 0 0 empty empty empty 0 -9 0 10 -262144
-1 -1 8064 0;
#X obj 430 607 * 0.5;
#X obj 430 626 + 0.5;
#X obj 430 647 vsl 15 128 0 1 0 0 empty empty empty 0 -9 0 10 -262144
-1 -1 4509 0;
#X obj 466 607 * 0.5;
#X obj 466 626 + 0.5;
#X obj 466 647 vsl 15 128 0 1 0 0 empty empty empty 0 -9 0 10 -262144
-1 -1 11875 0;
#X obj 242 527 mrpeach/routeOSC /frame;
#X obj 573 607 tgl 50 0 empty empty is_vibrating 0 -7 0 10 -262144
-1 -1 0 1;
#X obj 181 152 list split 1;
#X msg 181 92 /vibroNow \$1;
#X obj 181 74 tgl 15 0 empty empty empty 17 7 0 10 -262144 -1 -1 0
1;
#X obj 181 194 list append;
#X obj 270 74 tgl 15 0 empty empty empty 17 7 0 10 -262144 -1 -1 0
1;
#X msg 270 92 /wifi/enable \$1;
#X obj 181 235 list trim;
#X obj 181 215 list prepend send;
#X obj 336 338 bng 15 250 50 0 empty empty empty 17 7 0 10 -262144
-1 -1;
#X obj 563 215 min;
#X obj 597 215 max;
#X msg 612 177 0;
#X msg 578 177 1000;
#X obj 525 174 t f b b;
#X obj 325 358 mrpeach/unpackOSC;
#X obj 325 380 mrpeach/pipelist;
#X msg 10 73 /range/set 1 2;
#X msg 10 121 /wifi/get;
#X obj 516 607 tgl 50 0 empty empty button 0 -7 0 10 -262144 -1 -1
0 1;
#X obj 612 143 bng 15 250 50 0 empty empty empty 17 7 0 10 -262144
-1 -1;
#X obj 339 412 print fromwifi;
#X obj 181 358 mrpeach/unpackOSC;
#X obj 180 380 mrpeach/pipelist;
#N canvas 802 172 542 664 get-id-from-osc-message 0;
#X obj 138 82 list split 1;
#X obj 138 102 list fromsymbol;
#X obj 138 122 list split 1;
#X obj 93 558 list tosymbol;
#X obj 138 15 inlet;
#X obj 93 593 outlet;
#X obj 93 537 list split 11;
#X obj 189 255 until;
#X obj 191 187 list length;
#X obj 205 286 f;
#X obj 191 207 t f b;
#X obj 218 347 list;
#X msg 229 255 0;
#X obj 231 286 + 1;
#X obj 218 367 list split;
#X obj 172 147 t l l l;
#X obj 246 435 sel 1;
#X obj 376 349 bng 15 250 50 0 empty empty empty 17 7 0 10 -262144
-1 -1;
#X obj 246 457 t b b;
#X obj 204 309 t b f f;
#X obj 251 488 f;
#X obj 308 192 t l;
#X obj 246 390 list split 1;
#X obj 246 413 == 47;
#X text 185 23 1 remove first '/' 2 iterate over all remaining characters
until next '/' 3 split remaining at next '/' and keep left part;
#X text 218 121 1;
#X text 301 275 2;
#X text 135 518 3;
#X text 280 489 < position of second '/';
#X text 223 82 < keep OSC address only;
#X connect 0 0 1 0;
#X connect 1 0 2 0;
#X connect 2 1 15 0;
#X connect 3 0 5 0;
#X connect 4 0 0 0;
#X connect 6 0 3 0;
#X connect 7 0 9 0;
#X connect 8 0 10 0;
#X connect 9 0 13 0;
#X connect 9 0 19 0;
#X connect 10 0 7 0;
#X connect 10 1 12 0;
#X connect 11 0 14 0;
#X connect 12 0 9 1;
#X connect 13 0 9 1;
#X connect 14 1 22 0;
#X connect 15 0 6 0;
#X connect 15 1 8 0;
#X connect 15 2 21 0;
#X connect 16 0 18 0;
#X connect 17 0 7 1;
#X connect 18 0 20 0;
#X connect 18 1 17 0;
#X connect 19 0 11 0;
#X connect 19 1 14 1;
#X connect 19 2 20 1;
#X connect 20 0 6 1;
#X connect 21 0 11 1;
#X connect 22 0 23 0;
#X connect 23 0 16 0;
#X restore 542 258 pd get-id-from-osc-message;
#X msg 10 178 /config/get;
#X obj 516 449 mrpeach/udpsend;
#X obj 460 336 route from;
#X obj 439 380 list;
#X obj 439 358 bng 15 250 50 0 empty empty empty 17 7 0 10 -262144
-1 -1;
#X msg 516 427 connect \$1.\$2.\$3.\$4 \$5;
#X msg 10 159 /range/get;
#X symbolatom 542 279 12 0 0 0 - - -, f 12;
#X obj 242 506 mrpeach/routeOSC /601949154;
#X msg 10 54 /ports/set 7401 7400;
#X msg 10 140 /ports/get;
#X msg 10 16 /wifi/set XXXX-147e 192.168.0.12;
#X msg 10 35 /wifi/set XXXX-147e phewvomnamregcuvyeb2 192.168.0.12
;
#X msg 605 338 set /\$1;
#X obj 181 412 print fromserial;
#X obj 242 546 unpack f f f f f f f f f f f;
#X floatatom 516 661 5 0 0 0 - - -, f 5;
#N canvas 0 23 525 378 symcat 0;
#X obj 109 71 inlet;
#X obj 148 294 outlet;
#X msg 148 125 symbol \$1;
#X obj 256 71 inlet;
#X msg 256 125 symbol \$1;
#X obj 256 200 list fromsymbol;
#X obj 148 200 list fromsymbol;
#X obj 148 240 list prepend;
#X obj 109 98 route b;
#X obj 148 260 list tosymbol;
#X obj 256 92 route symbol;
#X obj 325 125 list prepend symbol;
#X obj 325 146 list trim;
#X connect 0 0 8 0;
#X connect 2 0 6 0;
#X connect 3 0 10 0;
#X connect 4 0 5 0;
#X connect 5 0 7 1;
#X connect 6 0 7 0;
#X connect 7 0 9 0;
#X connect 8 0 7 0;
#X connect 8 1 2 0;
#X connect 9 0 1 0;
#X connect 10 0 4 0;
#X connect 10 1 11 0;
#X connect 11 0 12 0;
#X connect 12 0 5 0;
#X restore 542 299 pd symcat;
#X obj 619 278 loadbang;
#X msg 619 297 /movuino/;
#X obj 265 147 loadbang;
#X msg 265 166 /movuino/5ccf7ff0bc;
#X msg 402 169 /hello;
#N canvas 0 23 525 378 symcat 0;
#X obj 109 71 inlet;
#X obj 148 294 outlet;
#X msg 148 125 symbol \$1;
#X obj 256 71 inlet;
#X msg 256 125 symbol \$1;
#X obj 256 200 list fromsymbol;
#X obj 148 200 list fromsymbol;
#X obj 148 240 list prepend;
#X obj 109 98 route b;
#X obj 148 260 list tosymbol;
#X obj 256 92 route symbol;
#X obj 325 125 list prepend symbol;
#X obj 325 146 list trim;
#X connect 0 0 8 0;
#X connect 2 0 6 0;
#X connect 3 0 10 0;
#X connect 4 0 5 0;
#X connect 5 0 7 1;
#X connect 6 0 7 0;
#X connect 7 0 9 0;
#X connect 8 0 7 0;
#X connect 8 1 2 0;
#X connect 9 0 1 0;
#X connect 10 0 4 0;
#X connect 10 1 11 0;
#X connect 11 0 12 0;
#X connect 12 0 5 0;
#X restore 181 173 pd symcat;
#X msg 110 204 4;
#X msg 139 204 5;
#X obj 107 178 sel 0 1;
#X obj 106 420 metro 100;
#X obj 109 390 tgl 15 0 empty empty empty 17 7 0 10 -262144 -1 -1 0
1;
#X obj 104 449 tgl 15 0 empty empty empty 17 7 0 10 -262144 -1 -1 0
1;
#X obj 156 476 delay 1;
#X floatatom 138 386 5 0 0 0 - - -, f 5;
#X obj 242 454 mrpeach/routeOSC /movuino /hello;
#X obj 445 490 unpack s s s f s;
#X symbolatom 444 541 10 0 0 0 - - -, f 10;
#X symbolatom 462 525 10 0 0 0 - - -, f 10;
#X symbolatom 488 512 10 0 0 0 - - -, f 10;
#X msg 10 92 /config/set 1 1 10 10 500;
#X obj 461 456 bng 15 250 50 0 empty empty empty 17 7 0 10 -262144
-1 -1;
#X symbolatom 546 536 15 0 0 0 - - -, f 15;
#X obj 326 315 mrpeach/udpreceive 7400;
#X obj 264 481 mrpeach/routeOSC /601949154;
#X obj 291 433 mrpeach/routeOSC /movuino;
#X msg 416 67 /vibroPulse 100 100 10;
#X obj 284 265 print;
#X connect 0 0 6 0;
#X connect 0 1 2 0;
#X connect 1 0 0 0;
#X connect 3 0 0 0;
#X connect 4 0 3 0;
#X connect 5 0 0 0;
#X connect 6 0 67 0;
#X connect 7 0 0 0;
#X connect 8 0 0 0;
#X connect 9 0 4 0;
#X connect 10 0 8 0;
#X connect 11 0 13 0;
#X connect 12 0 11 0;
#X connect 12 1 11 1;
#X connect 13 0 14 0;
#X connect 13 0 59 0;
#X connect 16 0 5 0;
#X connect 17 0 18 0;
#X connect 18 0 19 0;
#X connect 20 0 21 0;
#X connect 21 0 22 0;
#X connect 23 0 24 0;
#X connect 24 0 25 0;
#X connect 26 0 27 0;
#X connect 27 0 28 0;
#X connect 29 0 30 0;
#X connect 30 0 31 0;
#X connect 32 0 33 0;
#X connect 33 0 34 0;
#X connect 35 0 36 0;
#X connect 36 0 37 0;
#X connect 38 0 39 0;
#X connect 39 0 40 0;
#X connect 41 0 42 0;
#X connect 42 0 43 0;
#X connect 44 0 85 0;
#X connect 44 1 15 0;
#X connect 46 0 93 0;
#X connect 46 1 49 1;
#X connect 47 0 46 0;
#X connect 48 0 47 0;
#X connect 49 0 53 0;
#X connect 50 0 51 0;
#X connect 51 0 46 0;
#X connect 52 0 16 0;
#X connect 52 0 114 0;
#X connect 53 0 52 0;
#X connect 57 0 56 1;
#X connect 58 0 55 1;
#X connect 59 1 55 0;
#X connect 59 2 56 0;
#X connect 60 0 61 0;
#X connect 60 1 61 1;
#X connect 62 0 46 0;
#X connect 63 0 46 0;
#X connect 64 0 86 0;
#X connect 65 0 58 0;
#X connect 65 0 57 0;
#X connect 67 0 68 0;
#X connect 67 1 68 1;
#X connect 68 0 12 0;
#X connect 68 0 102 0;
#X connect 69 0 77 0;
#X connect 70 0 46 0;
#X connect 72 0 73 1;
#X connect 73 0 75 0;
#X connect 74 0 73 0;
#X connect 75 0 71 0;
#X connect 76 0 46 0;
#X connect 77 0 83 0;
#X connect 77 0 87 0;
#X connect 78 0 44 0;
#X connect 79 0 46 0;
#X connect 80 0 46 0;
#X connect 81 0 46 0;
#X connect 82 0 46 0;
#X connect 83 0 78 0;
#X connect 83 0 111 0;
#X connect 85 0 17 0;
#X connect 85 1 20 0;
#X connect 85 2 23 0;
#X connect 85 3 26 0;
#X connect 85 4 29 0;
#X connect 85 5 32 0;
#X connect 85 6 35 0;
#X connect 85 7 38 0;
#X connect 85 8 41 0;
#X connect 85 9 64 0;
#X connect 85 10 45 0;
#X connect 87 0 93 1;
#X connect 88 0 89 0;
#X connect 89 0 87 1;
#X connect 90 0 91 0;
#X connect 91 0 93 1;
#X connect 92 0 53 0;
#X connect 93 0 49 0;
#X connect 94 0 3 0;
#X connect 95 0 3 0;
#X connect 96 0 94 0;
#X connect 96 1 95 0;
#X connect 97 0 99 0;
#X connect 97 0 100 0;
#X connect 98 0 97 0;
#X connect 99 0 96 0;
#X connect 101 0 97 1;
#X connect 102 0 78 0;
#X connect 102 1 103 0;
#X connect 102 1 108 0;
#X connect 103 0 104 0;
#X connect 103 1 105 0;
#X connect 103 1 77 0;
#X connect 103 2 106 0;
#X connect 103 4 109 0;
#X connect 107 0 46 0;
#X connect 110 0 54 0;
#X connect 110 0 60 0;
#X connect 110 1 72 0;
#X connect 111 0 12 0;
#X connect 112 0 111 0;
#X connect 113 0 46 0;
